
<svg xmlns="http://www.w3.org/2000/svg" xmlns:xlink="http://www.w3.org/1999/xlink" transform="rotate(0) scale(1, 1)" viewBox="515.56 372.48 1016.35 269.03"><path fill="#47a1b8" d="M1021.12 388.349C1055.85 384.912 1087.15 397.924 1111.75 422.42C1124.45 435.063 1133.56 450.846 1138.17 468.159C1143.91 489.853 1142.3 526.421 1142.26 550.05L1142.3 639.773L1064.89 639.703L1065.11 463.363C1037.93 462.85 1013.45 461.951 996.654 487.566C980.717 516.936 988.817 553.342 1021.97 566.982C1031.86 571.052 1041.58 570.91 1052.13 570.929C1051.9 593.761 1052.14 617.023 1052.17 639.888C1016.81 640.179 990.872 639.509 961.055 617.755C936.105 599.552 918.78 570.492 915.01 539.989C910.503 503.52 913.152 466.145 936.464 436.404C960.419 405.843 983.738 393.653 1021.12 388.349Z"/><path fill="#47a1b8" d="M778.736 389.365C781.843 388.997 784.97 388.819 788.099 388.832C818.058 388.794 846.827 400.555 868.179 421.57C880.688 434.249 889.63 450.005 894.101 467.247C900.518 491.937 898.472 529.295 898.33 555.57L898.354 639.956L822.354 639.997C821.642 582.185 822.24 523.329 822.005 465.356C793.415 456.4 772.027 462.051 754.806 486.917C737.699 519.704 749.902 562.342 790.308 570.285C796.132 571.43 802.587 570.731 808.537 570.356L808.228 640.332C772.156 640.391 746.519 639.476 716.249 617.028C661.399 576.353 655.436 485.495 696.133 433.159C717.107 406.186 745.02 393.588 778.736 389.365Z"/><path fill="#47a1b8" d="M1263.47 388.385C1265.09 388.194 1266.25 388.186 1267.89 388.179C1298.07 387.868 1327.08 399.794 1348.32 421.235C1385.21 457.916 1378.66 506.352 1378.45 553.965L1378.5 639.656L1300.22 639.656L1300.35 463.299C1291.73 463.225 1283.12 463.262 1274.5 463.408C1222.74 466.213 1232.01 512.871 1232.36 551.045L1233.1 639.836L1156.61 639.812L1156.33 548.166C1156.3 526.251 1155.14 494.655 1159.73 474.248C1163.17 458.419 1170.3 443.624 1180.53 431.064C1202.2 404.445 1229.81 391.761 1263.47 388.385Z"/><path fill="#47a1b8" d="M516.376 373.105C541.408 372.595 568.164 373.07 593.337 373.062L593.045 391.959L655.416 391.93C654.781 415.15 655.01 439.78 654.874 463.11L592.626 463.054C592.024 481.527 590.557 505.269 592.214 523.152C598.256 588.358 645.805 563.326 655.072 570.996L655.278 575.75C655.191 597.415 655.215 619.079 655.349 640.744C648.835 640.813 642.32 640.838 635.806 640.82C601.008 640.64 573.362 635.932 548.059 610.233C534.347 596.525 524.591 579.369 519.82 560.576C514.063 538.41 515.772 500.371 515.866 476.438L516.376 373.105Z"/><path fill="#47a1b8" d="M1419.77 372.491C1437.25 372.432 1454.73 372.586 1472.21 372.954L1472.14 390.964L1531.91 391.105C1531.67 415.073 1531.58 439.041 1531.63 463.01L1472.76 462.978C1473.22 508.667 1457.19 586.155 1531.51 568.022C1531.31 579.514 1531.18 591.007 1531.11 602.5L1531.2 641.507C1490.18 640.859 1459.42 642.421 1427.49 610.758C1413.84 597.262 1404.13 580.287 1399.43 561.671C1393.42 538.293 1395.19 489.794 1395.41 463.803C1395.72 433.516 1395.75 403.228 1395.51 372.94C1403.48 372.924 1411.77 372.645 1419.77 372.491Z"/></svg>